<svg width="138" height="27" viewBox="0 0 138 27" fill="none" xmlns="http://www.w3.org/2000/svg">
<path d="M73.4854 26.644V10.7443H88.319C90.6325 10.7443 92.2656 11.0619 93.2182 11.7423C94.1935 12.4228 94.6698 13.3073 94.6698 14.3734V14.6682C94.6698 15.1445 94.5564 15.5982 94.375 15.9838C94.1708 16.3693 93.9213 16.6869 93.5811 16.9137C93.2636 17.1632 92.9687 17.3446 92.6965 17.458C92.447 17.5941 92.1749 17.7075 91.9027 17.7756C92.2883 17.8436 92.6512 17.9797 93.0141 18.1385C93.377 18.2973 93.7626 18.5241 94.1935 18.7963C94.6245 19.0911 94.9874 19.4994 95.2369 20.021C95.509 20.52 95.6451 21.1098 95.6451 21.7675V22.0624C95.6451 25.1244 93.2409 26.644 88.4551 26.644H73.4854ZM78.9062 14.1012V16.6869H87.3891C88.6592 16.6869 89.2716 16.2559 89.2716 15.394V15.3487C89.2716 14.5095 88.6592 14.1012 87.3891 14.1012H78.9062ZM87.8654 20.0664H78.9062V23.1738H87.8654C88.6592 23.1738 89.2263 23.015 89.5438 22.6975C89.8387 22.4026 89.9974 22.0397 89.9974 21.6087V21.5407C89.9974 20.5427 89.2943 20.0664 87.8654 20.0664Z" fill="#D8FF83"/>
<path d="M97.7253 10.7443H115.984V14.3507H103.078V16.7096H115.689V20.3386H103.078V22.947H116.233V26.644H97.7253V10.7443Z" fill="#D8FF83"/>
<path d="M124.94 26.6667V14.5548H117.501V10.7897H137.869V14.5548H130.406V26.6667H124.94Z" fill="#D8FF83"/>
<path d="M23.4374 18.0525H0V16.0523C0 15.6164 0 15.2061 0.0512854 14.8471C0.0769281 14.4881 0.153856 14.0778 0.307712 13.565C0.435926 13.0778 0.641068 12.6419 0.871852 12.2316C1.12828 11.8469 1.48728 11.411 1.97449 10.9494C2.43606 10.4879 3.0002 10.0776 3.64126 9.71859C4.28233 9.35959 5.1029 9.00059 6.07732 8.66723C7.05174 8.33388 8.18002 8.05181 9.41087 7.79538L13.8983 6.94917C15.1035 6.74403 15.8728 6.53889 16.2318 6.3081C16.5652 6.10296 16.7447 5.82089 16.7447 5.48754C16.7447 5.20547 16.6421 5.00033 16.4626 4.82083C16.2575 4.64133 15.7703 4.48747 15.0266 4.35926C14.283 4.23104 13.2573 4.15412 11.9239 4.15412C10.7956 4.15412 9.8468 4.23104 9.07752 4.41054C8.33388 4.5644 7.76974 4.79518 7.46203 5.1029C7.12867 5.38497 6.89789 5.64139 6.79532 5.87218C6.69275 6.10296 6.61582 6.35939 6.59017 6.64146H0.333355V6.46196C0.333355 5.94911 0.384641 5.4619 0.487211 5.00033C0.589782 4.5644 0.846209 4.00026 1.28214 3.38484C1.71806 2.74377 2.30784 2.20527 3.05148 1.7437C3.76948 1.30778 4.84647 0.923136 6.25682 0.589782C7.64153 0.256427 9.3083 0.102569 11.2059 0.102569H12.2316C13.9753 0.102569 15.5138 0.205141 16.8216 0.410283C18.1294 0.615425 19.1807 0.871851 19.9757 1.20521C20.7449 1.53856 21.386 1.9232 21.8732 2.41041C22.3348 2.89762 22.6681 3.38484 22.8476 3.89769C23.0271 4.3849 23.1041 4.9234 23.1041 5.53882V5.59011C23.1041 6.3081 23.0015 6.92353 22.822 7.41074C22.6425 7.92359 22.2835 8.38516 21.7707 8.84673C21.2322 9.3083 20.4885 9.69294 19.4885 10.0263C18.514 10.334 17.2319 10.6161 15.6933 10.8725L10.4109 11.6674C7.05174 12.2316 5.35932 12.9752 5.35932 13.8727H17.514V11.5905H23.4374V18.0525Z" fill="white"/>
<path d="M25.5085 10.9238L39.253 0.0256424H45.8688V10.1545H49.8178V14.3343H45.8688V18.0268H39.8171V14.3343H25.5085V10.9238ZM39.8171 10.1545V4.51312L32.6371 10.1545H39.8171Z" fill="white"/>
<path d="M50.3296 0H73.8183V3.79512C73.6645 3.97462 73.2798 4.33362 72.7157 4.9234C72.1259 5.51318 71.5105 6.17989 70.8438 6.89789C70.1514 7.64152 69.536 8.35952 68.9206 9.07752C67.5615 10.7443 66.6897 12.1803 66.305 13.4111C65.9204 14.642 65.7409 16.1036 65.7409 17.8217V18.0268H58.6635V15.7703C58.6635 14.3343 59.0225 13.0778 59.7405 11.9751C60.4328 10.8469 61.0995 9.43651 63.0997 7.69281C65.3562 5.71832 66.2024 4.15412 66.2281 4.07719H56.5608V7.76974H50.3296V0Z" fill="white"/>
</svg>
